<svg xmlns="http://www.w3.org/2000/svg" width="18.395" height="19.332" viewBox="0 0 18.395 19.332">
  <g id="HDRIs" transform="translate(0 -0.012)">
    <g id="Layer_2" data-name="Layer 2" transform="translate(0 0.012)">
      <path id="Path_6" data-name="Path 6" d="M20.4,27.529l.039-.134.039-.134h-.155l.039.134Z" transform="translate(-12.689 -17.03)" fill="#dfe2e3"/>
      <path id="Path_7" data-name="Path 7" d="M20.4,23.524l-.039.134-.039.134h.155l-.039-.134Z" transform="translate(-12.689 -14.696)" fill="#dfe2e3"/>
      <path id="Path_8" data-name="Path 8" d="M18.3,25.621l.134-.039.134-.039V25.7l-.134-.039Z" transform="translate(-11.428 -15.958)" fill="#dfe2e3"/>
      <path id="Path_9" data-name="Path 9" d="M22.3,25.621l-.134.039-.134.039v-.155l.134.039Z" transform="translate(-13.761 -15.958)" fill="#dfe2e3"/>
      <path id="Path_10" data-name="Path 10" d="M18.95,24.176l.122.068.122.068-.055.054-.055.055-.068-.122Z" transform="translate(-11.835 -15.103)" fill="#dfe2e3"/>
      <path id="Path_11" data-name="Path 11" d="M21.691,26.917l-.122-.068-.122-.068.054-.054.055-.055.068.122Z" transform="translate(-13.394 -16.663)" fill="#dfe2e3"/>
      <path id="Path_12" data-name="Path 12" d="M21.691,24.176l-.068.122-.068.122-.055-.055-.054-.054.122-.068Z" transform="translate(-13.394 -15.103)" fill="#dfe2e3"/>
      <path id="Path_13" data-name="Path 13" d="M18.95,26.917l.067-.122.068-.122.055.055.055.054-.122.068Z" transform="translate(-11.835 -16.663)" fill="#dfe2e3"/>
      <circle id="Ellipse_7" data-name="Ellipse 7" cx="0.463" cy="0.463" r="0.463" transform="translate(7.237 9.195)" fill="#dfe2e3"/>
      <path id="Path_14" data-name="Path 14" d="M20.654,18.423v6.7h0l-.02-.013a12.008,12.008,0,0,0-5.769-1.163,12.952,12.952,0,0,0-5.478,1,.211.211,0,0,1-.31-.187V18.425a.211.211,0,0,1,.31-.187,12.952,12.952,0,0,0,5.478,1,12.96,12.96,0,0,0,5.481-1,.211.211,0,0,1,.31.187Z" transform="translate(-5.667 -11.378)" fill="none" stroke="#dfe2e3" stroke-miterlimit="10" stroke-width="1"/>
      <path id="Path_15" data-name="Path 15" d="M20.654,27.277v2.8a.052.052,0,0,1-.022.011,12.009,12.009,0,0,0-5.769-1.163,12.952,12.952,0,0,0-5.478,1,.211.211,0,0,1-.31-.187V26.513l1.44,1.138a.213.213,0,0,0,.24.018l1.2-.716a.211.211,0,0,1,.216,0l1.24.724a.211.211,0,0,0,.227-.009l2.114-1.444a.214.214,0,0,1,.22-.011l1.748.945a.214.214,0,0,0,.209,0L19.2,26.4a.215.215,0,0,1,.231.011Z" transform="translate(-5.667 -16.358)" fill="#dfe2e3" stroke="#dfe2e3" stroke-width="1"/>
      <path id="Path_16" data-name="Path 16" d="M0,9.2a9.2,9.2,0,1,1,17.974,2.756,9.023,9.023,0,0,1-.773,1.77l-.071.121a.134.134,0,0,1-.027.036c-.055.046-.2.016-.268.007a1.273,1.273,0,0,1-.288-.075,1.257,1.257,0,0,1-.48-.331.042.042,0,0,1-.012-.021.043.043,0,0,1,.007-.025,10.693,10.693,0,0,0,.8-1.746q.037-.115.071-.232a8.063,8.063,0,1,0-8.546,5.764l-.019-1,1.363.755.417.229.95.526-1.036.623-.3.184-1.337.8-.019-.98A9.2,9.2,0,0,1,0,9.2Z" transform="translate(0 -0.012)" fill="#dfe2e3"/>
    </g>
  </g>
</svg>