<svg xmlns="http://www.w3.org/2000/svg" width="18.92" height="18.88" viewBox="0 0 18.92 18.88">
  <path id="search_icon" d="M300.633,101.093a.979.979,0,0,1-1.385,0l-5.2-5.2a.975.975,0,0,1-.028-1.351l.056-.056a5.913,5.913,0,1,0-4.229,1.779,4.735,4.735,0,0,0,.631-.034c.118-.017.242-.034.36-.056a1.37,1.37,0,0,1,.338-.028.949.949,0,0,1,.535.225,1.009,1.009,0,0,1,.152.158.97.97,0,0,1,.2.591.984.984,0,0,1-.31.715,1.255,1.255,0,0,1-.755.293,9.183,9.183,0,0,1-1.109.079h-.034a7.851,7.851,0,1,1,6.222-3.058l4.555,4.555A.979.979,0,0,1,300.633,101.093Z" transform="translate(-282 -82.5)" fill="#fff" opacity="0.5"/>
</svg>