<svg xmlns="http://www.w3.org/2000/svg" width="17.668" height="16.167" viewBox="0 0 17.668 16.167">
  <g id="Textures" transform="translate(-24.072 -25.194)">
    <g id="Layer_1" data-name="Layer 1" transform="translate(24.322 25.444)">
      <rect id="Rectangle_24" data-name="Rectangle 24" width="14.249" height="12.758" rx="1" transform="translate(2.919 2.908)" fill="#030b0f" stroke="#dfe2e3" stroke-miterlimit="10" stroke-width="0.5"/>
      <rect id="Rectangle_22" data-name="Rectangle 22" width="14.249" height="12.758" rx="1" transform="translate(1.441 1.432)" fill="#030b0f" stroke="#dfe2e3" stroke-miterlimit="10" stroke-width="0.5"/>
      <rect id="Rectangle_23" data-name="Rectangle 23" width="14.249" height="12.758" rx="1" fill="#dfe2e3" stroke="#dfe2e3" stroke-miterlimit="10" stroke-width="0.5"/>
      <rect id="Rectangle_10" data-name="Rectangle 10" width="0.808" height="3.374" rx="0.404" transform="translate(3.636 0.496) rotate(45)" fill="#030b0f"/>
      <rect id="Rectangle_11" data-name="Rectangle 11" width="0.808" height="7.45" rx="0.404" transform="translate(6.518 0.514) rotate(45)" fill="#030b0f"/>
      <rect id="Rectangle_12" data-name="Rectangle 12" width="0.808" height="11.629" rx="0.404" transform="translate(9.473 0.496) rotate(45)" fill="#030b0f"/>
      <rect id="Rectangle_13" data-name="Rectangle 13" width="0.808" height="3.374" rx="0.404" transform="translate(12.428 9.287) rotate(45)" fill="#030b0f"/>
      <rect id="Rectangle_14" data-name="Rectangle 14" width="0.808" height="7.45" rx="0.404" transform="translate(12.373 6.406) rotate(45)" fill="#030b0f"/>
      <rect id="Rectangle_15" data-name="Rectangle 15" width="0.808" height="11.629" rx="0.404" transform="translate(12.391 3.414) rotate(45)" fill="#030b0f"/>
      <rect id="Rectangle_16" data-name="Rectangle 16" width="0.808" height="15.782" rx="0.404" transform="translate(12.41 0.532) rotate(45)" fill="#030b0f"/>
    </g>
  </g>
</svg>